<svg width="15" height="12" xmlns="http://www.w3.org/2000/svg"><path d="M12.905 2.91c.005.126.008.254.008.382 0 3.897-2.966 8.391-8.391 8.391A8.354 8.354 0 0 1 0 10.358a5.917 5.917 0 0 0 4.367-1.222 2.951 2.951 0 0 1-2.755-2.048 2.967 2.967 0 0 0 1.331-.05A2.95 2.95 0 0 1 .578 4.146V4.11c.398.22.852.353 1.336.369A2.949 2.949 0 0 1 1 .54 8.374 8.374 0 0 0 7.08 3.622a2.95 2.95 0 0 1 5.026-2.69A5.907 5.907 0 0 0 13.98.216a2.955 2.955 0 0 1-1.297 1.631 5.876 5.876 0 0 0 1.694-.464 5.997 5.997 0 0 1-1.471 1.527" fill="#FFF" fill-rule="evenodd"/></svg>
